<svg
  fill="none"
  height="720"
  viewBox="0 0 1280 720"
  width="1280"
  xmlns="http://www.w3.org/2000/svg"
>
  <title>Afenda appearance settings route blueprint</title>
  <rect fill="#F7F9FC" height="720" rx="40" width="1280" />
  <rect
    fill="#FFFFFF"
    height="624"
    rx="32"
    stroke="#D8E2F0"
    stroke-width="2"
    width="1184"
    x="48"
    y="48"
  />
  <rect fill="#111827" height="76" rx="24" width="1104" x="88" y="88" />
  <rect fill="#D1D5DB" height="12" rx="6" width="280" x="120" y="114" />
  <rect fill="#6B7280" height="10" rx="5" width="430" x="120" y="136" />
  <rect
    fill="#F8FAFC"
    height="446"
    rx="28"
    stroke="#D8E2F0"
    stroke-width="2"
    width="360"
    x="88"
    y="196"
  />
  <rect fill="#E0E7FF" height="14" rx="7" width="190" x="120" y="228" />
  <rect
    fill="#FFFFFF"
    height="96"
    rx="22"
    stroke="#C7D2FE"
    stroke-width="2"
    width="296"
    x="120"
    y="274"
  />
  <rect
    fill="#FFFFFF"
    height="96"
    rx="22"
    stroke="#C7D2FE"
    stroke-width="2"
    width="296"
    x="120"
    y="392"
  />
  <rect
    fill="#FFFFFF"
    height="96"
    rx="22"
    stroke="#C7D2FE"
    stroke-width="2"
    width="296"
    x="120"
    y="510"
  />
  <rect
    fill="#EEF2FF"
    height="446"
    rx="28"
    stroke="#C7D2FE"
    stroke-width="2"
    width="700"
    x="492"
    y="196"
  />
  <rect fill="#4F46E5" height="14" rx="7" width="214" x="526" y="228" />
  <rect
    fill="#FFFFFF"
    height="270"
    rx="28"
    stroke="#C7D2FE"
    stroke-width="2"
    width="634"
    x="526"
    y="274"
  />
  <circle cx="638" cy="410" fill="#1E293B" r="52" />
  <circle cx="742" cy="410" fill="#475569" r="52" />
  <circle cx="846" cy="410" fill="#E2E8F0" r="52" />
  <rect fill="#CBD5E1" height="12" rx="6" width="310" x="526" y="576" />
</svg>
